<svg width="244" height="236" viewBox="0 0 244 236" fill="none" xmlns="http://www.w3.org/2000/svg">
<path d="M181 0.800049C168.747 0.800049 156.996 5.66773 148.332 14.3317C139.667 22.9962 134.8 34.7466 134.8 47.0001C134.8 59.2535 139.668 71.0039 148.332 79.6684C156.996 88.3329 168.747 93.2001 181 93.2001C193.253 93.2001 205.004 88.3324 213.668 79.6684C222.333 71.0039 227.2 59.2535 227.2 47.0001C227.185 34.7505 222.314 23.0097 213.653 14.3471C204.99 5.68645 193.249 0.815409 181 0.800049V0.800049ZM145.95 32.8252L153.734 35.9752C152.783 38.3301 152.142 40.7997 151.827 43.3216L143.494 42.2791C143.898 39.0353 144.723 35.8552 145.951 32.8255L145.95 32.8252ZM166.825 82.0492C155.719 77.5342 147.401 68.0337 144.392 56.4292L152.524 54.3292C154.872 63.3479 161.342 70.7298 169.974 74.2415L166.825 82.0492ZM209.425 70.7092C207.94 72.4904 205.294 72.7304 203.511 71.2473L178.311 50.2473C177.349 49.4448 176.794 48.2542 176.8 46.9998V21.7998C176.8 19.4804 178.681 17.5998 181 17.5998C183.319 17.5998 185.2 19.4804 185.2 21.7998V45.0347L208.889 64.7747C210.668 66.2597 210.91 68.9053 209.425 70.6883L209.425 70.7092Z" fill="#A6B0F1"/>
<path d="M139 118.4H147.4V126.8H139V118.4Z" fill="#C4CAF6"/>
<path d="M139 101.6H147.4V110H139V101.6Z" fill="#C4CAF6"/>
<path d="M155.8 118.4H164.2V126.8H155.8V118.4Z" fill="#C4CAF6"/>
<path d="M218.8 97.4H227.2V105.8H218.8V97.4Z" fill="#C4CAF6"/>
<path d="M218.8 114.2H227.2V122.6H218.8V114.2Z" fill="#C4CAF6"/>
<path d="M235.6 80.6001H244V89.0001H235.6V80.6001Z" fill="#C4CAF6"/>
<path d="M235.6 97.4H244V105.8H235.6V97.4Z" fill="#C4CAF6"/>
<path d="M235.6 114.2H244V122.6H235.6V114.2Z" fill="#C4CAF6"/>
<path d="M87.5728 97.544L79.2534 95.2715L83.3241 105.44C85.891 111.839 90.9608 116.909 97.3602 119.476L107.529 123.547L105.256 115.227C102.894 106.627 96.1735 99.9066 87.5728 97.544L87.5728 97.544Z" fill="#FF9A42"/>
<path d="M46.6001 17.6001H55.0001V26.0001H46.6001V17.6001Z" fill="#54B757"/>
<path d="M59.2 9.20005H63.4V5.00005C63.4 3.8863 62.9574 2.81754 62.17 2.03005C61.3825 1.24256 60.3137 0.800049 59.2 0.800049H42.4C40.0806 0.800049 38.2 2.68069 38.2 5.00005V9.20005H59.2Z" fill="#54B757"/>
<path d="M101.2 47C101.2 43.6588 99.8724 40.4523 97.5099 38.0903C95.1474 35.7282 91.9409 34.4003 88.6001 34.4003H13.0002C9.65892 34.4003 6.45247 35.7278 4.09039 38.0903C1.72831 40.4528 0.400391 43.6592 0.400391 47V59.6H101.2L101.2 47ZM59.1999 51.2H50.7999V42.8H59.1999V51.2ZM92.7999 51.2H67.5999V42.8H92.7999V51.2Z" fill="#7AC77D"/>
<path d="M187 142.765L178.936 156.201H209.393L187 142.765Z" fill="#7AC77D"/>
<path d="M224.454 145.645L203.874 133.296L195.647 128.366L191.329 135.564L220.125 152.839L224.454 145.645Z" fill="#7AC77D"/>
<path d="M99.7216 129.474C97.7772 134.397 97.9778 139.91 100.271 144.682C102.11 146.399 104.375 147.598 106.832 148.151C106.5 143.034 107.051 137.898 108.461 132.967L99.7216 129.474Z" fill="#FFD7B3"/>
<path d="M223 189.8V164.6H214.6V173H206.2V164.6H197.8V181.4H189.4V164.6H181V173H172.6V164.6H167.933C168.653 173.006 168.349 181.468 167.028 189.8H223Z" fill="#7AC77D"/>
<path d="M70.3936 232.967C55.1949 211.316 48.833 184.683 52.6091 158.499C53.8016 150.167 58.793 142.858 66.1187 138.714C73.4464 134.57 82.2813 134.059 90.0362 137.33C89.9143 133.537 90.5781 129.759 91.9843 126.234C84.503 122.576 78.6398 116.278 75.5217 108.557L68.3237 90.5607L68.3218 90.5588C67.7274 89.0795 68.0237 87.39 69.0849 86.1995C70.1461 85.0089 71.7905 84.5232 73.328 84.9432L89.7886 89.4169C93.9212 90.5588 97.795 92.4844 101.2 95.0867V67.9965H0.399674V106.007C0.397799 110.349 1.88091 114.562 4.59967 117.947C8.49967 122.852 10.6314 128.931 10.6486 135.197C10.6261 141.454 8.49425 147.52 4.59967 152.417C1.87529 155.811 0.394058 160.035 0.399674 164.387V223.398C0.399674 226.74 1.72716 229.946 4.08967 232.308C6.45219 234.67 9.65864 235.998 12.9994 235.998H72.553C72.448 235.856 72.3262 235.734 72.2249 235.578L70.3936 232.967ZM8.80001 80.6001C8.80001 78.2807 10.6807 76.4001 13 76.4001C15.3194 76.4001 17.2 78.2807 17.2 80.6001V89.0001C17.2 91.3195 15.3194 93.2001 13 93.2001C10.6807 93.2001 8.80001 91.3195 8.80001 89.0001V80.6001ZM18.46 161.907C17.62 164.109 17.1925 166.445 17.2 168.8C17.2 171.119 15.3194 173 13 173C10.6807 173 8.80001 171.119 8.80001 168.8C8.79626 165.411 9.42065 162.051 10.6431 158.892C11.515 156.786 13.9056 155.759 16.0335 156.578C18.1598 157.396 19.2454 159.76 18.4804 161.907L18.46 161.907ZM25.6711 145.074C25.2979 146.141 24.5123 147.012 23.4904 147.492C22.4667 147.971 21.2948 148.019 20.2354 147.624C19.178 147.228 18.3229 146.424 17.8654 145.391C17.4079 144.358 17.3854 143.184 17.8054 142.134C20.1548 135.813 19.0317 128.723 14.8392 123.44C10.9373 118.548 8.80942 112.477 8.79982 106.22C8.79982 103.901 10.6805 102.02 12.9998 102.02C15.3192 102.02 17.1998 103.901 17.1998 106.22C17.2036 110.574 18.6848 114.796 21.3998 118.198C27.4373 125.787 29.0649 135.982 25.6917 145.074L25.6711 145.074Z" fill="#66BE69"/>
<path d="M159.04 159.695C158.386 155.236 156.152 151.16 152.75 148.206C149.345 145.253 144.995 143.618 140.489 143.599C135.519 143.588 130.748 145.564 127.242 149.09L126.04 150.291V150.29C121.782 154.542 116.01 156.931 109.992 156.931C103.975 156.931 98.2034 154.542 93.9434 150.29L93.8384 150.185L93.8009 150.151L92.7434 149.093C89.2334 145.563 84.4576 143.584 79.4795 143.6C74.9721 143.618 70.6221 145.253 67.2189 148.207C63.8157 151.16 61.5827 155.236 60.9285 159.695C57.4541 183.765 63.3023 208.252 77.2749 228.153L79.1105 230.774V230.772C81.4055 234.048 85.1537 235.998 89.1512 235.998C93.0081 235.988 96.6363 234.173 98.9595 231.096L99.897 229.836H99.8951C102.274 226.664 106.009 224.796 109.975 224.796C113.943 224.796 117.676 226.664 120.055 229.836L120.996 231.096C123.355 234.239 127.077 236.061 131.005 235.996C134.933 235.93 138.594 233.988 140.845 230.768L142.681 228.147C146.294 222.974 149.39 217.456 151.921 211.675L151.945 211.617H151.947C159.112 195.31 161.57 177.323 159.04 159.691L159.04 159.695ZM124.079 172.58C117.604 175.795 109.999 175.795 103.525 172.58C101.448 171.543 100.606 169.019 101.643 166.943C102.679 164.868 105.203 164.024 107.279 165.061C111.387 167.107 116.217 167.107 120.325 165.061C122.401 164.024 124.924 164.868 125.961 166.943C126.998 169.019 126.156 171.543 124.079 172.58H124.079Z" fill="#FFC28E"/>
<path d="M147.736 235.578C147.635 235.72 147.513 235.846 147.408 235.998H151.608V229.752C150.92 230.819 150.307 231.919 149.579 232.966L147.736 235.578Z" fill="black"/>
<path d="M227.2 198.2V206.6H218.8V198.2H210.4V215H202V198.2H193.6V206.6H185.2V198.2H176.8V215H168.4V198.2H165.355C164.003 203.626 162.212 208.934 160 214.072V236H223C226.341 236 229.548 234.673 231.91 232.31C234.272 229.948 235.6 226.741 235.6 223.4V198.2L227.2 198.2Z" fill="#7AC77D"/>
</svg>
