<svg width="23" height="17" viewBox="0 0 23 17" fill="none" xmlns="http://www.w3.org/2000/svg">
<path d="M0.214233 16.2542V13.4542C0.214233 12.8875 0.360233 12.3665 0.652233 11.8912C0.943567 11.4165 1.3309 11.0542 1.81423 10.8042C2.84757 10.2875 3.89757 9.89982 4.96423 9.64115C6.0309 9.38315 7.11423 9.25415 8.21423 9.25415C9.31423 9.25415 10.3976 9.38315 11.4642 9.64115C12.5309 9.89982 13.5809 10.2875 14.6142 10.8042C15.0976 11.0542 15.4849 11.4165 15.7762 11.8912C16.0682 12.3665 16.2142 12.8875 16.2142 13.4542V16.2542H0.214233ZM18.2142 16.2542V13.2542C18.2142 12.5208 18.0102 11.8165 17.6022 11.1412C17.1936 10.4665 16.6142 9.88748 15.8642 9.40415C16.7142 9.50415 17.5142 9.67482 18.2642 9.91615C19.0142 10.1581 19.7142 10.4542 20.3642 10.8042C20.9642 11.1375 21.4226 11.5082 21.7392 11.9162C22.0559 12.3248 22.2142 12.7708 22.2142 13.2542V16.2542H18.2142ZM8.21423 8.25415C7.11423 8.25415 6.17257 7.86248 5.38923 7.07915C4.6059 6.29582 4.21423 5.35415 4.21423 4.25415C4.21423 3.15415 4.6059 2.21248 5.38923 1.42915C6.17257 0.645817 7.11423 0.25415 8.21423 0.25415C9.31423 0.25415 10.2559 0.645817 11.0392 1.42915C11.8226 2.21248 12.2142 3.15415 12.2142 4.25415C12.2142 5.35415 11.8226 6.29582 11.0392 7.07915C10.2559 7.86248 9.31423 8.25415 8.21423 8.25415ZM18.2142 4.25415C18.2142 5.35415 17.8226 6.29582 17.0392 7.07915C16.2559 7.86248 15.3142 8.25415 14.2142 8.25415C14.0309 8.25415 13.7976 8.23348 13.5142 8.19215C13.2309 8.15015 12.9976 8.10415 12.8142 8.05415C13.2642 7.52082 13.6099 6.92915 13.8512 6.27915C14.0932 5.62915 14.2142 4.95415 14.2142 4.25415C14.2142 3.55415 14.0932 2.87915 13.8512 2.22915C13.6099 1.57915 13.2642 0.987484 12.8142 0.45415C13.0476 0.370817 13.2809 0.316484 13.5142 0.291151C13.7476 0.266484 13.9809 0.25415 14.2142 0.25415C15.3142 0.25415 16.2559 0.645817 17.0392 1.42915C17.8226 2.21248 18.2142 3.15415 18.2142 4.25415ZM2.21423 14.2542H14.2142V13.4542C14.2142 13.2708 14.1686 13.1042 14.0772 12.9542C13.9852 12.8042 13.8642 12.6875 13.7142 12.6042C12.8142 12.1542 11.9059 11.8165 10.9892 11.5912C10.0726 11.3665 9.14757 11.2542 8.21423 11.2542C7.2809 11.2542 6.3559 11.3665 5.43923 11.5912C4.52257 11.8165 3.61423 12.1542 2.71423 12.6042C2.56423 12.6875 2.44357 12.8042 2.35223 12.9542C2.26023 13.1042 2.21423 13.2708 2.21423 13.4542V14.2542ZM8.21423 6.25415C8.76423 6.25415 9.23523 6.05815 9.62723 5.66615C10.0186 5.27482 10.2142 4.80415 10.2142 4.25415C10.2142 3.70415 10.0186 3.23348 9.62723 2.84215C9.23523 2.45015 8.76423 2.25415 8.21423 2.25415C7.66423 2.25415 7.19357 2.45015 6.80223 2.84215C6.41023 3.23348 6.21423 3.70415 6.21423 4.25415C6.21423 4.80415 6.41023 5.27482 6.80223 5.66615C7.19357 6.05815 7.66423 6.25415 8.21423 6.25415Z" fill="#C4CAF6"/>
</svg>
